<svg xmlns="http://www.w3.org/2000/svg" xmlns:xlink="http://www.w3.org/1999/xlink" viewBox="0 0 1000 1000" width="1000" height="1000" preserveAspectRatio="xMidYMid meet" style="width: 100%; height: 100%; transform: translate3d(0px, 0px, 0px); content-visibility: visible;"><defs><clipPath id="__lottie_element_39569"><rect width="1000" height="1000" x="0" y="0"></rect></clipPath></defs><g clip-path="url(#__lottie_element_39569)"><g transform="matrix(-0.6990683078765869,-0.7150549292564392,0.7150549292564392,-0.6990683078765869,525.2271118164062,919.6187133789062)" opacity="1" style="display: block;"><g opacity="1" transform="matrix(1,0,0,1,49.66999816894531,293.4739990234375)"><path fill="rgb(99,207,121)" fill-opacity="1" d=" M35.500999450683594,30.43000030517578 C32.26100158691406,30.43000030517578 29.020999908447266,29.190000534057617 26.541000366210938,26.709999084472656 C26.541000366210938,26.709999084472656 0,0.16899999976158142 0,0.16899999976158142 C0,0.16899999976158142 -26.54199981689453,26.709999084472656 -26.54199981689453,26.709999084472656 C-31.5,31.66900062561035 -39.53099822998047,31.66900062561035 -44.46099853515625,26.709999084472656 C-49.41999816894531,21.750999450683594 -49.41999816894531,13.722000122070312 -44.46099853515625,8.791000366210938 C-44.46099853515625,8.791000366210938 -8.960000038146973,-26.711000442504883 -8.960000038146973,-26.711000442504883 C-4.000999927520752,-31.66900062561035 4.0289998054504395,-31.66900062561035 8.958999633789062,-26.711000442504883 C8.958999633789062,-26.711000442504883 44.46099853515625,8.791000366210938 44.46099853515625,8.791000366210938 C49.41999816894531,13.75 49.41999816894531,21.780000686645508 44.46099853515625,26.709999084472656 C41.98099899291992,29.190000534057617 38.74100112915039,30.43000030517578 35.500999450683594,30.43000030517578z"></path></g><g opacity="1" transform="matrix(1,0,0,1,181.02499389648438,408.5570068359375)"><path fill="rgb(99,207,121)" fill-opacity="1" d=" M132.0030059814453,144.55599975585938 C132.0030059814453,144.55599975585938 131.83399963378906,144.55599975585938 131.83399963378906,144.55599975585938 C-20.59600067138672,144.55599975585938 -144.5970001220703,20.55500030517578 -144.5970001220703,-131.87600708007812 C-144.5970001220703,-138.89100646972656 -138.9340057373047,-144.55599975585938 -131.91799926757812,-144.55599975585938 C-124.9020004272461,-144.55599975585938 -119.23899841308594,-138.89100646972656 -119.23899841308594,-131.87600708007812 C-119.23899841308594,6.551000118255615 -6.620999813079834,119.1969985961914 131.83399963378906,119.1969985961914 C138.85000610351562,119.1969985961914 144.5970001220703,124.86000061035156 144.5970001220703,131.87600708007812 C144.5970001220703,138.89199829101562 139.0189971923828,144.55599975585938 132.0030059814453,144.55599975585938z"></path></g><g opacity="1" transform="matrix(1,0,0,1,574.2589721679688,257.02899169921875)"><path fill="rgb(99,207,121)" fill-opacity="1" d=" M2.3529999256134033,32.303001403808594 C-0.7179999947547913,32.303001403808594 -3.677000045776367,31.20400047302246 -5.986999988555908,29.176000595092773 C-5.986999988555908,29.176000595092773 -43.770999908447266,-3.9019999504089355 -43.770999908447266,-3.9019999504089355 C-49.040000915527344,-8.52299976348877 -49.57600021362305,-16.524999618530273 -44.95600128173828,-21.79400062561035 C-40.334999084472656,-27.062999725341797 -32.332000732421875,-27.597999572753906 -27.062999725341797,-22.976999282836914 C-27.062999725341797,-22.976999282836914 1.1690000295639038,1.7330000400543213 1.1690000295639038,1.7330000400543213 C1.1690000295639038,1.7330000400543213 25.878000259399414,-26.499000549316406 25.878000259399414,-26.499000549316406 C30.499000549316406,-31.76799964904785 38.50199890136719,-32.303001403808594 43.770999908447266,-27.68199920654297 C49.040000915527344,-23.062000274658203 49.57600021362305,-15.0600004196167 44.95500183105469,-9.791000366210938 C44.95500183105469,-9.791000366210938 11.87600040435791,27.992000579833984 11.87600040435791,27.992000579833984 C9.649999618530273,30.52899932861328 6.5229997634887695,32.07699966430664 3.1689999103546143,32.303001403808594 C2.9159998893737793,32.275001525878906 2.634000062942505,32.303001403808594 2.3529999256134033,32.303001403808594z"></path></g><g opacity="1" transform="matrix(1,0,0,1,444.72100830078125,144.80499267578125)"><path fill="rgb(99,207,121)" fill-opacity="1" d=" M131.91900634765625,144.55499267578125 C124.90299987792969,144.55499267578125 119.23899841308594,138.89199829101562 119.23899841308594,131.87600708007812 C119.23899841308594,-6.578999996185303 6.620999813079834,-119.1969985961914 -131.83399963378906,-119.1969985961914 C-138.85000610351562,-119.1969985961914 -144.59800720214844,-124.86100006103516 -144.59800720214844,-131.87600708007812 C-144.59800720214844,-138.89199829101562 -138.99099731445312,-144.55499267578125 -132.0030059814453,-144.55499267578125 C-132.0030059814453,-144.55499267578125 -131.83399963378906,-144.55499267578125 -131.83399963378906,-144.55499267578125 C20.597000122070312,-144.55499267578125 144.59800720214844,-20.554000854492188 144.59800720214844,131.87600708007812 C144.59800720214844,138.89199829101562 138.906005859375,144.55499267578125 131.91900634765625,144.55499267578125z"></path></g></g><g transform="matrix(1,0,0,1,376.9743957519531,120.9502182006836)" opacity="1" style="display: block;"><g opacity="1" transform="matrix(1,0,0,1,130.09800720214844,130.11199951171875)"><path fill="rgb(232,230,227)" fill-opacity="1" d=" M129.84800720214844,-83.76599884033203 C129.84800720214844,-83.76599884033203 129.84800720214844,83.76699829101562 129.84800720214844,83.76699829101562 C129.84800720214844,109.20999908447266 109.2229995727539,129.86199951171875 83.75199890136719,129.86199951171875 C83.75199890136719,129.86199951171875 -83.75299835205078,129.86199951171875 -83.75299835205078,129.86199951171875 C-101.30500030517578,129.86199951171875 -116.54900360107422,120.05699920654297 -124.35399627685547,105.63099670410156 C-127.8479995727539,99.12300109863281 -129.8470001220703,91.68399810791016 -129.8470001220703,83.76699829101562 C-129.8470001220703,83.76699829101562 -129.8470001220703,-83.76599884033203 -129.8470001220703,-83.76599884033203 C-129.8470001220703,-109.20800018310547 -109.2229995727539,-129.86099243164062 -83.75299835205078,-129.86099243164062 C-83.75299835205078,-129.86099243164062 83.75199890136719,-129.86099243164062 83.75199890136719,-129.86099243164062 C91.02200317382812,-129.86099243164062 97.9229965209961,-128.1699981689453 104.03700256347656,-125.15599822998047 C119.33699798583984,-117.66200256347656 129.84800720214844,-101.93900299072266 129.84800720214844,-83.76599884033203z"></path></g><g opacity="1" transform="matrix(1,0,0,1,119.94000244140625,120.33499908447266)"><path fill="rgb(255,249,240)" fill-opacity="1" d=" M119.69000244140625,-93.54399871826172 C119.69000244140625,-93.54399871826172 119.69000244140625,73.98799896240234 119.69000244140625,73.98799896240234 C119.69000244140625,99.45999908447266 99.06600189208984,120.08499908447266 73.59500122070312,120.08499908447266 C73.59500122070312,120.08499908447266 -93.93800354003906,120.08499908447266 -93.93800354003906,120.08499908447266 C-93.93800354003906,120.08499908447266 -94.16300201416016,120.08499908447266 -94.16300201416016,120.08499908447266 C-108.05400085449219,120.02799987792969 -119.35199737548828,108.53299713134766 -119.69000244140625,94.64299774169922 C-119.69000244140625,94.64299774169922 -119.69000244140625,93.54399871826172 -119.69000244140625,93.54399871826172 C-119.69000244140625,93.54399871826172 -119.69000244140625,-73.98999786376953 -119.69000244140625,-73.98999786376953 C-119.69000244140625,-99.43299865722656 -99.06600189208984,-120.08499908447266 -73.59500122070312,-120.08499908447266 C-73.59500122070312,-120.08499908447266 93.91000366210938,-120.08499908447266 93.91000366210938,-120.08499908447266 C93.91000366210938,-120.08499908447266 94.16400146484375,-120.08499908447266 94.16400146484375,-120.08499908447266 C108.05400085449219,-120.0009994506836 119.35199737548828,-108.53299713134766 119.69000244140625,-94.64299774169922 C119.69000244140625,-94.64299774169922 119.69000244140625,-93.54399871826172 119.69000244140625,-93.54399871826172z"></path></g><g opacity="1" transform="matrix(1,0,0,1,121.60299682617188,120.91300201416016)"><path fill="rgb(27,16,43)" fill-opacity="1" d=" M25.695999145507812,43.79899978637695 C25.695999145507812,43.79899978637695 -26.485000610351562,43.79899978637695 -26.485000610351562,43.79899978637695 C-29.27400016784668,43.79899978637695 -31.753999710083008,45.54600143432617 -32.68299865722656,48.16600036621094 C-32.68299865722656,48.16600036621094 -41.27799987792969,72.25700378417969 -41.27799987792969,72.25700378417969 C-42.20800018310547,74.87699890136719 -44.6870002746582,76.6240005493164 -47.47700119018555,76.6240005493164 C-47.47700119018555,76.6240005493164 -64.63500213623047,76.6240005493164 -64.63500213623047,76.6240005493164 C-69.25700378417969,76.6240005493164 -72.44000244140625,71.9739990234375 -70.77799987792969,67.66400146484375 C-70.77799987792969,67.66400146484375 -16.849000930786133,-72.39800262451172 -16.849000930786133,-72.39800262451172 C-15.86299991607666,-74.93399810791016 -13.440999984741211,-76.6240005493164 -10.708000183105469,-76.6240005493164 C-10.708000183105469,-76.6240005493164 10.510000228881836,-76.6240005493164 10.510000228881836,-76.6240005493164 C13.241999626159668,-76.6240005493164 15.663999557495117,-74.96199798583984 16.650999069213867,-72.39800262451172 C16.650999069213867,-72.39800262451172 70.77799987792969,67.66400146484375 70.77799987792969,67.66400146484375 C72.44000244140625,71.9739990234375 69.25599670410156,76.6240005493164 64.63500213623047,76.6240005493164 C64.63500213623047,76.6240005493164 46.742000579833984,76.6240005493164 46.742000579833984,76.6240005493164 C43.952999114990234,76.6240005493164 41.4739990234375,74.87699890136719 40.54399871826172,72.25700378417969 C40.54399871826172,72.25700378417969 31.951000213623047,48.16600036621094 31.951000213623047,48.16600036621094 C30.96500015258789,45.57400131225586 28.485000610351562,43.79899978637695 25.695999145507812,43.79899978637695z M17.554000854492188,8.071999549865723 C17.554000854492188,8.071999549865723 5.916999816894531,-24.47100067138672 5.916999816894531,-24.47100067138672 C3.8320000171661377,-30.30299949645996 -4.395999908447266,-30.30299949645996 -6.480999946594238,-24.47100067138672 C-6.480999946594238,-24.47100067138672 -18.117000579833984,8.071999549865723 -18.117000579833984,8.071999549865723 C-19.63800048828125,12.354000091552734 -16.482999801635742,16.889999389648438 -11.918999671936035,16.889999389648438 C-11.918999671936035,16.889999389648438 11.354000091552734,16.889999389648438 11.354000091552734,16.889999389648438 C15.890000343322754,16.889999389648438 19.075000762939453,12.354000091552734 17.554000854492188,8.071999549865723z"></path></g><g opacity="1" transform="matrix(1,0,0,1,205.6790008544922,32.39799880981445)"><path fill="rgb(252,210,126)" fill-opacity="1" d=" M0,9.862000465393066 C5.446000099182129,9.862000465393066 9.861000061035156,5.447000026702881 9.861000061035156,0.0010000000474974513 C9.861000061035156,-5.446000099182129 5.446000099182129,-9.862000465393066 0,-9.862000465393066 C-5.446000099182129,-9.862000465393066 -9.861000061035156,-5.446000099182129 -9.861000061035156,0.0010000000474974513 C-9.861000061035156,5.447000026702881 -5.446000099182129,9.862000465393066 0,9.862000465393066z"></path></g></g><g transform="matrix(1,0,0,1,371.53570556640625,623.7968139648438)" opacity="1" style="display: block;"><g opacity="1" transform="matrix(1,0,0,1,130.11099243164062,130.09800720214844)"><path fill="rgb(83,149,219)" fill-opacity="1" d=" M129.86099243164062,-83.75199890136719 C129.86099243164062,-83.75199890136719 129.86099243164062,83.75199890136719 129.86099243164062,83.75199890136719 C129.86099243164062,89.35900115966797 128.8470001220703,94.74099731445312 127.01499938964844,99.72799682617188 C120.53500366210938,117.30999755859375 103.60099792480469,129.84800720214844 83.76599884033203,129.84800720214844 C83.76599884033203,129.84800720214844 -83.76699829101562,129.84800720214844 -83.76699829101562,129.84800720214844 C-109.23799896240234,129.84800720214844 -129.86099243164062,109.2229995727539 -129.86099243164062,83.75199890136719 C-129.86099243164062,83.75199890136719 -129.86099243164062,-83.75199890136719 -129.86099243164062,-83.75199890136719 C-129.86099243164062,-98.1500015258789 -123.26799774169922,-110.99800109863281 -112.9280014038086,-119.47899627685547 C-104.98200225830078,-125.95999908447266 -94.83999633789062,-129.84800720214844 -83.76699829101562,-129.84800720214844 C-83.76699829101562,-129.84800720214844 83.76599884033203,-129.84800720214844 83.76599884033203,-129.84800720214844 C109.20800018310547,-129.84800720214844 129.86099243164062,-109.2229995727539 129.86099243164062,-83.75199890136719z"></path></g><g opacity="1" transform="matrix(1,0,0,1,137.15499877929688,120.23600006103516)"><path fill="rgb(148,228,255)" fill-opacity="1" d=" M122.81700134277344,-73.88999938964844 C122.81700134277344,-73.88999938964844 122.81700134277344,93.61399841308594 122.81700134277344,93.61399841308594 C122.81700134277344,93.61399841308594 122.81700134277344,93.78299713134766 122.81700134277344,93.78299713134766 C122.78900146484375,104.74400329589844 115.37899780273438,114.43599700927734 104.9540023803711,117.78900146484375 C100.50199890136719,119.22599792480469 95.73999786376953,119.98600006103516 90.80999755859375,119.98600006103516 C90.80999755859375,119.98600006103516 -76.7229995727539,119.98600006103516 -76.7229995727539,119.98600006103516 C-102.19400024414062,119.98600006103516 -122.81700134277344,99.36199951171875 -122.81700134277344,73.89099884033203 C-122.81700134277344,73.89099884033203 -122.81700134277344,-93.61299896240234 -122.81700134277344,-93.61299896240234 C-122.81700134277344,-93.61299896240234 -122.81700134277344,-93.78199768066406 -122.81700134277344,-93.78199768066406 C-122.78900146484375,-104.74299621582031 -115.37899780273438,-114.43499755859375 -104.9260025024414,-117.78800201416016 C-100.4739990234375,-119.2249984741211 -95.74199676513672,-119.98600006103516 -90.81099700927734,-119.98600006103516 C-90.81099700927734,-119.98600006103516 76.7229995727539,-119.98600006103516 76.7229995727539,-119.98600006103516 C102.16500091552734,-119.98600006103516 122.81700134277344,-99.36100006103516 122.81700134277344,-73.88999938964844z"></path></g><g opacity="1" transform="matrix(1,0,0,1,143.3249969482422,119.55999755859375)"><path fill="rgb(255,255,255)" fill-opacity="1" d=" M69.25599670410156,-22.554000854492188 C59.479000091552734,-32.33100128173828 46.49100112915039,-37.262001037597656 30.628000259399414,-37.262001037597656 C18.541000366210938,-37.262001037597656 5.664000034332275,-34.020999908447266 -7.860000133514404,-27.597999572753906 C-7.888999938964844,-30.218000411987305 -8.987000465393066,-32.75400161743164 -11.043999671936035,-34.810001373291016 C-13.664999961853027,-37.40299987792969 -16.650999069213867,-39.40399932861328 -19.97599983215332,-40.72800064086914 C-19.97599983215332,-40.72800064086914 -21.187999725341797,-41.207000732421875 -21.187999725341797,-41.207000732421875 C-20.73699951171875,-47.8849983215332 -19.86400032043457,-50.645999908447266 -19.44099998474121,-51.68899917602539 C-16.117000579833984,-54.08300018310547 -15.128999710083008,-57.15399932861328 -14.847999572753906,-58.9010009765625 C-14.397000312805176,-61.60499954223633 -14.819999694824219,-65.74800109863281 -19.21500015258789,-70.14299774169922 C-19.21500015258789,-70.14299774169922 -19.80699920654297,-70.73400115966797 -19.80699920654297,-70.73400115966797 C-19.80699920654297,-70.73400115966797 -20.51099967956543,-71.18499755859375 -20.51099967956543,-71.18499755859375 C-30.54199981689453,-77.86299896240234 -40.430999755859375,-80.34200286865234 -49.89799880981445,-78.56700134277344 C-49.89799880981445,-78.56700134277344 -51.05400085449219,-78.34200286865234 -51.05400085449219,-78.34200286865234 C-51.05400085449219,-78.34200286865234 -52.125999450683594,-77.80699920654297 -52.125999450683594,-77.80699920654297 C-58.013999938964844,-74.8759994506836 -60.409000396728516,-70.95999908447266 -59.28200149536133,-66.197998046875 C-58.6619987487793,-63.577999114990234 -56.4630012512207,-59.21099853515625 -48.71500015258789,-59.097999572753906 C-46.095001220703125,-58.87300109863281 -45.474998474121094,-58.196998596191406 -45.165000915527344,-57.29600143432617 C-44.82699966430664,-52.111000061035156 -44.630001068115234,-44.61600112915039 -44.57400131225586,-34.979000091552734 C-51.59000015258789,-32.95100021362305 -55.61800003051758,-32.472999572753906 -57.87200164794922,-32.472999572753906 C-59.5629997253418,-32.472999572753906 -59.76100158691406,-32.78200149536133 -60.21200180053711,-33.9370002746582 C-60.21200180053711,-33.9370002746582 -60.520999908447266,-34.641998291015625 -60.520999908447266,-34.641998291015625 C-63.25400161743164,-40.05099868774414 -67.64900207519531,-40.58599853515625 -69.4520034790039,-40.643001556396484 C-71.22799682617188,-40.643001556396484 -75.62300109863281,-40.05099868774414 -78.35600280761719,-34.612998962402344 C-78.35600280761719,-34.612998962402344 -78.89099884033203,-33.542999267578125 -78.89099884033203,-33.542999267578125 C-78.89099884033203,-33.542999267578125 -79.11799621582031,-32.35900115966797 -79.11799621582031,-32.35900115966797 C-80.01899719238281,-27.485000610351562 -79.68000030517578,-18.356000900268555 -67.76200103759766,-11.142999649047852 C-61.81700134277344,-5.677000045776367 -55.44900131225586,-5.394999980926514 -48.96900177001953,-9.819000244140625 C-47.50299835205078,-10.41100025177002 -46.03900146484375,-11.029999732971191 -44.54499816894531,-11.621999740600586 C-44.54499816894531,-11.621999740600586 -44.54499816894531,-4.943999767303467 -44.54499816894531,-4.943999767303467 C-50.32099914550781,3.255000114440918 -56.60499954223633,11.819999694824219 -63.255001068115234,20.55500030517578 C-67.6780014038086,26.44300079345703 -70.3550033569336,28.472000122070312 -71.56600189208984,29.176000595092773 C-79.39900207519531,33.65599822998047 -80.58300018310547,39.96799850463867 -80.58300018310547,43.32099914550781 C-80.58300018310547,59.86000061035156 -73.76399993896484,63.32400131225586 -68.04399871826172,63.32400131225586 C-65.76200103759766,63.32400131225586 -60.23899841308594,62.507999420166016 -57.027000427246094,55.18299865722656 C-56.6609992980957,54.50600051879883 -56.26599884033203,53.83000183105469 -55.900001525878906,53.15399932861328 C-48.404998779296875,62.70600128173828 -47.95399856567383,66.02999877929688 -47.92599868774414,66.4530029296875 C-47.92599868774414,76.06099700927734 -41.98099899291992,80.34200286865234 -36.06399917602539,80.34200286865234 C-29.18899917602539,80.34200286865234 -24.766000747680664,74.39800262451172 -23.187999725341797,72.20099639892578 C-20.257999420166016,68.42500305175781 -18.763999938964844,63.52199935913086 -18.763999938964844,57.60499954223633 C-18.763999938964844,50.645999908447266 -19.01799964904785,44.64500045776367 -19.496999740600586,39.770999908447266 C-20.68000030517578,28.048999786376953 -21.327999114990234,16.891000747680664 -21.4689998626709,6.578999996185303 C-2.6480000019073486,-8.10099983215332 13.946999549865723,-15.538999557495117 27.864999771118164,-15.538999557495117 C36.9379997253418,-15.538999557495117 43.67300033569336,-13.229000091552734 48.40700149536133,-8.496000289916992 C51.816001892089844,-5.058000087738037 53.42100143432617,-0.9150000214576721 53.42100143432617,4.578999996185303 C53.42100143432617,12.75 50.237998962402344,19.906999588012695 43.64500045776367,26.5 C34.064998626708984,36.08000183105469 18.625,42.84199905395508 -2.197000026702881,46.617000579833984 C-2.197000026702881,46.617000579833984 -4.789999961853027,47.095001220703125 -4.789999961853027,47.095001220703125 C-4.789999961853027,47.095001220703125 -6.64900016784668,48.983001708984375 -6.64900016784668,48.983001708984375 C-10.847000122070312,53.180999755859375 -10.875,57.12699890136719 -10.142999649047852,59.689998626708984 C-9.692000389099121,61.32500076293945 -8.057999610900879,65.24099731445312 -2.7039999961853027,66.56500244140625 C-2.7039999961853027,66.56500244140625 -1.1829999685287476,66.93099975585938 -1.1829999685287476,66.93099975585938 C-1.1829999685287476,66.93099975585938 0.39500001072883606,66.73300170898438 0.39500001072883606,66.73300170898438 C30.26099967956543,62.874000549316406 52.52000045776367,53.83000183105469 66.49500274658203,39.82699966430664 C75.82099914550781,30.500999450683594 80.5270004272461,19.343000411987305 80.5270004272461,6.636000156402588 C80.58300018310547,-5.254000186920166 76.77899932861328,-15.031000137329102 69.25599670410156,-22.554000854492188z M-44.375999450683594,35.542999267578125 C-44.48899841308594,35.402000427246094 -44.630001068115234,35.29100036621094 -44.74300003051758,35.14899826049805 C-44.60300064086914,34.98099899291992 -44.48899841308594,34.78200149536133 -44.347999572753906,34.612998962402344 C-44.347999572753906,34.92300033569336 -44.375999450683594,35.233001708984375 -44.375999450683594,35.542999267578125z"></path></g><g opacity="1" transform="matrix(1,0,0,1,223.34500122070312,41.21799850463867)"><path fill="rgb(209,69,88)" fill-opacity="1" d=" M0,9.861000061035156 C5.446000099182129,9.861000061035156 9.862000465393066,5.447000026702881 9.862000465393066,0.0010000000474974513 C9.862000465393066,-5.446000099182129 5.446000099182129,-9.861000061035156 0,-9.861000061035156 C-5.446000099182129,-9.861000061035156 -9.862000465393066,-5.446000099182129 -9.862000465393066,0.0010000000474974513 C-9.862000465393066,5.447000026702881 -5.446000099182129,9.861000061035156 0,9.861000061035156z"></path></g></g></g></svg>